<?xml version="1.0" encoding="UTF-8"?>
<svg width="54px" height="54px" viewBox="0 0 54 54" version="1.1" xmlns="http://www.w3.org/2000/svg" xmlns:xlink="http://www.w3.org/1999/xlink">
    <title>logo-mobile</title>
    <g id="Page-1" stroke="none" stroke-width="1" fill="none" fill-rule="evenodd">
        <g id="logo-mobile">
            <rect id="Rectangle-6" stroke="#E5261F" stroke-width="4" fill-rule="nonzero" x="2" y="2" width="50" height="50"></rect>
            
            <path id="." fill="#E5261F" d="M34.402,41.895 C33.9259976,41.3769974 33.688,40.7400038 33.688,39.984 C33.688,39.2279962 33.9329975,38.5840027 34.423,38.052 C34.9130025,37.5199973 35.4939966,37.254 36.166,37.254 C36.8660035,37.254 37.4469977,37.5199973 37.909,38.052 C38.3710023,38.5840027 38.602,39.2279962 38.602,39.984 C38.602,40.7400038 38.3570024,41.3769974 37.867,41.895 C37.3769975,42.4130026 36.7960034,42.672 36.124,42.672 C35.4519966,42.672 34.8780024,42.4130026 34.402,41.895 Z"></path>
            
            <path id="G" fill="#E5261F" fill-rule="nonzero" d="M25.5,14.5 L25.5,18.2 C23.5,15.8 20.8,14.6 17.5,14.6 C11.9,14.6 7.5,18.2 7.5,24.1 C7.5,30 11.9,33.6 17.5,33.6 C22.9,33.6 26.2,30.6 26.2,26 L26.2,25.3 L17.5,25.3 L17.5,21.8 L29.8,21.8 L29.8,26 C29.8,32.5 24.8,37.2 17.5,37.2 C9.7,37.2 3.5,31.6 3.5,24.1 C3.5,16.5 9.7,11 17.5,11 C20.6,11 23.5,12.2 25.5,14.5 Z" transform="translate(6, 4)"></path>
        </g>
    </g>
</svg>
