<?xml version="1.0" encoding="UTF-8"?>
<svg width="32px" height="32px" viewBox="0 0 32 32" version="1.1" xmlns="http://www.w3.org/2000/svg" xmlns:xlink="http://www.w3.org/1999/xlink">
    <title>Group</title>
    <g id="Page-1" stroke="none" stroke-width="1" fill="none" fill-rule="evenodd">
        <g id="Group">
            <rect id="Rectangle" fill="#E5261F" x="0" y="0" width="32" height="32" rx="3"></rect>
            
            <path d="M22.5,10.5 L22.5,13.2 C21.1,11.5 19.1,10.6 16.8,10.6 C12.9,10.6 9.8,13.2 9.8,17.4 C9.8,21.6 12.9,24.2 16.8,24.2 C20.6,24.2 23,22.1 23,18.8 L23,18.3 L16.8,18.3 L16.8,15.8 L25.5,15.8 L25.5,18.8 C25.5,23.5 22,26.8 16.8,26.8 C11.3,26.8 7,22.8 7,17.4 C7,12 11.3,8 16.8,8 C19,8 21.1,8.9 22.5,10.5 Z" 
                  id="G" fill="#FFFFFF" fill-rule="nonzero"></path>
        </g>
    </g>
</svg>
